<svg id="visual" viewBox="0 0 1920 450" width="1920" height="450" xmlns="http://www.w3.org/2000/svg" xmlns:xlink="http://www.w3.org/1999/xlink" version="1.1"><path d="M0 344L20 348.3C40 352.7 80 361.3 120 364.8C160 368.3 200 366.7 240 364.2C280 361.7 320 358.3 360 358.7C400 359 440 363 480 366.8C520 370.7 560 374.3 600 369.7C640 365 680 352 720 349.8C760 347.7 800 356.3 840 356.2C880 356 920 347 960 344.3C1000 341.7 1040 345.3 1080 351.2C1120 357 1160 365 1200 363.5C1240 362 1280 351 1320 350C1360 349 1400 358 1440 359.5C1480 361 1520 355 1560 355.8C1600 356.7 1640 364.3 1680 362.8C1720 361.3 1760 350.7 1800 346C1840 341.3 1880 342.7 1900 343.3L1920 344L1920 451L1900 451C1880 451 1840 451 1800 451C1760 451 1720 451 1680 451C1640 451 1600 451 1560 451C1520 451 1480 451 1440 451C1400 451 1360 451 1320 451C1280 451 1240 451 1200 451C1160 451 1120 451 1080 451C1040 451 1000 451 960 451C920 451 880 451 840 451C800 451 760 451 720 451C680 451 640 451 600 451C560 451 520 451 480 451C440 451 400 451 360 451C320 451 280 451 240 451C200 451 160 451 120 451C80 451 40 451 20 451L0 451Z" fill="#d2730d"></path><path d="M0 425L20 425.2C40 425.3 80 425.7 120 425.8C160 426 200 426 240 420.2C280 414.3 320 402.7 360 401C400 399.3 440 407.7 480 412.5C520 417.3 560 418.7 600 418.8C640 419 680 418 720 412.3C760 406.7 800 396.3 840 395.7C880 395 920 404 960 404.3C1000 404.7 1040 396.3 1080 396.3C1120 396.3 1160 404.7 1200 406.5C1240 408.3 1280 403.7 1320 402.3C1360 401 1400 403 1440 402.5C1480 402 1520 399 1560 400.7C1600 402.3 1640 408.7 1680 413C1720 417.3 1760 419.7 1800 418.7C1840 417.7 1880 413.3 1900 411.2L1920 409L1920 451L1900 451C1880 451 1840 451 1800 451C1760 451 1720 451 1680 451C1640 451 1600 451 1560 451C1520 451 1480 451 1440 451C1400 451 1360 451 1320 451C1280 451 1240 451 1200 451C1160 451 1120 451 1080 451C1040 451 1000 451 960 451C920 451 880 451 840 451C800 451 760 451 720 451C680 451 640 451 600 451C560 451 520 451 480 451C440 451 400 451 360 451C320 451 280 451 240 451C200 451 160 451 120 451C80 451 40 451 20 451L0 451Z" fill="#f39f20"></path></svg>