<svg id="visual" viewBox="0 0 1920 450" width="1920" height="450" xmlns="http://www.w3.org/2000/svg" xmlns:xlink="http://www.w3.org/1999/xlink" version="1.1"><path d="M0 139L20 133.3C40 127.7 80 116.3 120 111.8C160 107.3 200 109.7 240 112.8C280 116 320 120 360 119.3C400 118.7 440 113.3 480 108.2C520 103 560 98 600 104.2C640 110.3 680 127.7 720 130.7C760 133.7 800 122.3 840 122.7C880 123 920 135 960 138.7C1000 142.3 1040 137.7 1080 129.8C1120 122 1160 111 1200 112.8C1240 114.7 1280 129.3 1320 130.7C1360 132 1400 120 1440 118.2C1480 116.3 1520 124.7 1560 123.7C1600 122.7 1640 112.3 1680 114.3C1720 116.3 1760 130.7 1800 136.8C1840 143 1880 141 1900 140L1920 139L1920 0L1900 0C1880 0 1840 0 1800 0C1760 0 1720 0 1680 0C1640 0 1600 0 1560 0C1520 0 1480 0 1440 0C1400 0 1360 0 1320 0C1280 0 1240 0 1200 0C1160 0 1120 0 1080 0C1040 0 1000 0 960 0C920 0 880 0 840 0C800 0 760 0 720 0C680 0 640 0 600 0C560 0 520 0 480 0C440 0 400 0 360 0C320 0 280 0 240 0C200 0 160 0 120 0C80 0 40 0 20 0L0 0Z" fill="#d2730d"></path><path d="M0 30L20 29.8C40 29.7 80 29.3 120 29.3C160 29.3 200 29.7 240 37.7C280 45.7 320 61.3 360 63.5C400 65.7 440 54.3 480 47.8C520 41.3 560 39.7 600 39.3C640 39 680 40 720 47.5C760 55 800 69 840 70C880 71 920 59 960 58.5C1000 58 1040 69 1080 68.8C1120 68.7 1160 57.3 1200 55C1240 52.7 1280 59.3 1320 61.2C1360 63 1400 60 1440 60.7C1480 61.3 1520 65.7 1560 63.7C1600 61.7 1640 53.3 1680 47.5C1720 41.7 1760 38.3 1800 39.5C1840 40.7 1880 46.3 1900 49.2L1920 52L1920 0L1900 0C1880 0 1840 0 1800 0C1760 0 1720 0 1680 0C1640 0 1600 0 1560 0C1520 0 1480 0 1440 0C1400 0 1360 0 1320 0C1280 0 1240 0 1200 0C1160 0 1120 0 1080 0C1040 0 1000 0 960 0C920 0 880 0 840 0C800 0 760 0 720 0C680 0 640 0 600 0C560 0 520 0 480 0C440 0 400 0 360 0C320 0 280 0 240 0C200 0 160 0 120 0C80 0 40 0 20 0L0 0Z" fill="#f39f20"></path></svg>