<svg id="visual" viewBox="0 0 1920 1080" width="1920" height="1080" xmlns="http://www.w3.org/2000/svg" xmlns:xlink="http://www.w3.org/1999/xlink" version="1.1"><rect x="0" y="0" width="1920" height="1080" fill="#e4ebf1"></rect><path d="M0 152L40 147C80 142 160 132 240 130.7C320 129.3 400 136.7 480 140C560 143.3 640 142.7 720 139.2C800 135.7 880 129.3 960 131.8C1040 134.3 1120 145.7 1200 152.2C1280 158.7 1360 160.3 1440 159.3C1520 158.3 1600 154.7 1680 149.8C1760 145 1840 139 1880 136L1920 133L1920 0L1880 0C1840 0 1760 0 1680 0C1600 0 1520 0 1440 0C1360 0 1280 0 1200 0C1120 0 1040 0 960 0C880 0 800 0 720 0C640 0 560 0 480 0C400 0 320 0 240 0C160 0 80 0 40 0L0 0Z" fill="#d2730d"></path><path d="M0 72L40 75.2C80 78.3 160 84.7 240 86.5C320 88.3 400 85.7 480 78.8C560 72 640 61 720 56.2C800 51.3 880 52.7 960 57.8C1040 63 1120 72 1200 72.3C1280 72.7 1360 64.3 1440 65.2C1520 66 1600 76 1680 75.8C1760 75.7 1840 65.3 1880 60.2L1920 55L1920 0L1880 0C1840 0 1760 0 1680 0C1600 0 1520 0 1440 0C1360 0 1280 0 1200 0C1120 0 1040 0 960 0C880 0 800 0 720 0C640 0 560 0 480 0C400 0 320 0 240 0C160 0 80 0 40 0L0 0Z" fill="#f39f20"></path></svg>